<?xml version="1.0" encoding="UTF-8"?>
<svg width="300" height="300" viewBox="0 0 300 300" xmlns="http://www.w3.org/2000/svg">
    <!-- Head -->
    <circle cx="150" cy="150" r="100" fill="white" stroke="#ff66a1" stroke-width="4"/>
    
    <!-- Left Ear -->
    <circle cx="90" cy="70" r="30" fill="white" stroke="#ff66a1" stroke-width="4"/>
    
    <!-- Right Ear -->
    <circle cx="210" cy="70" r="30" fill="white" stroke="#ff66a1" stroke-width="4"/>
    
    <!-- Eyes -->
    <ellipse cx="120" cy="140" rx="6" ry="10"/>
    <ellipse cx="180" cy="140" rx="6" ry="10"/>
    
    <!-- Nose -->
    <circle cx="150" cy="160" r="6" fill="#ff66a1"/>
    
    <!-- Whiskers -->
    <line x1="110" y1="170" x2="70" y2="160" stroke="#ff66a1" stroke-width="3"/>
    <line x1="110" y1="180" x2="70" y2="180" stroke="#ff66a1" stroke-width="3"/>
    <line x1="110" y1="190" x2="70" y2="200" stroke="#ff66a1" stroke-width="3"/>
    
    <line x1="190" y1="170" x2="230" y2="160" stroke="#ff66a1" stroke-width="3"/>
    <line x1="190" y1="180" x2="230" y2="180" stroke="#ff66a1" stroke-width="3"/>
    <line x1="190" y1="190" x2="230" y2="200" stroke="#ff66a1" stroke-width="3"/>
    
    <!-- Big Bow -->
    <path d="M110,40 Q150,20 190,40 Q150,60 110,40" fill="#ff66a1"/>
    <path d="M110,40 Q150,20 190,40 Q150,60 110,40" fill="#ff66a1" transform="rotate(180 150 40)"/>
    <circle cx="150" cy="40" r="15" fill="#ff99c2"/>
    
    <!-- Highlights -->
    <circle cx="130" cy="130" r="3" fill="white"/>
    <circle cx="190" cy="130" r="3" fill="white"/>
</svg>
